<svg width="60" height="60" viewBox="0 0 60 60" fill="none" xmlns="http://www.w3.org/2000/svg">
    <g clip-path="url(#clip0_100_262)">
        <path d="M51 0H9C4.02944 0 0 4.02944 0 9V51C0 55.9706 4.02944 60 9 60H51C55.9706 60 60 55.9706 60 51V9C60 4.02944 55.9706 0 51 0Z" fill="white"/>
        <path d="M18.5156 45.8203V29.1797L8.90625 21.7969V42.3047C8.90625 44.6484 10.0781 45.8203 12.4219 45.8203" fill="#4285F4"/>
        <path d="M18.0469 29.0625L30 38.0859L41.9531 29.0625V17.5781L30 26.6016L18.0469 17.5781" fill="#EA4335"/>
        <path d="M41.4844 45.8203V29.1797L51.0938 21.7969V42.3047C51.0938 44.6484 49.9219 45.8203 47.5781 45.8203" fill="#34A853"/>
        <path d="M8.90625 22.0313L18.5156 29.4141V17.9297L15 15.2344C11.8359 12.7735 8.90625 15.2344 8.90625 18.2813" fill="#C5221F"/>
        <path d="M51.0938 22.0313L41.4844 29.4141V17.9297L45 15.2344C48.1641 12.7735 51.0938 15.2344 51.0938 18.2813" fill="#FBBC04"/>
    </g>
    <defs>
        <clipPath id="clip0_100_262">
            <rect width="60" height="60" fill="white"/>
        </clipPath>
    </defs>
</svg>
