<svg width="60" height="60" viewBox="0 0 60 60" fill="none" xmlns="http://www.w3.org/2000/svg">
    <rect width="60" height="60" rx="10" fill="white"/>
    <path d="M45.8438 45.8438H39.1762V35.4001C39.1762 32.9101 39.1313 29.7038 35.7075 29.7038C32.235 29.7038 31.7025 32.4188 31.7025 35.2163V45.8438H25.035V24.3676H31.4363V27.3038H31.5262C32.8312 25.0763 35.2612 23.7413 37.8412 23.8351C44.5987 23.8351 45.8475 28.2788 45.8475 34.0651L45.8438 45.8401V45.8438ZM17.5125 21.4313C16.4883 21.4264 15.5074 21.0176 14.7828 20.2937C14.0582 19.5698 13.6484 18.5893 13.6425 17.5651C13.6425 15.4426 15.39 13.6951 17.5125 13.6951C19.635 13.6951 21.3788 15.4426 21.3825 17.5651C21.3825 19.6876 19.635 21.4313 17.5125 21.4313ZM20.8463 45.8438H14.1713V24.3676H20.8463V45.8438ZM49.1625 7.50006H10.8187C9.94931 7.49501 9.11302 7.83328 8.49159 8.44137C7.87016 9.04945 7.51382 9.87822 7.5 10.7476V49.2526C7.51382 50.1219 7.87016 50.9507 8.49159 51.5587C9.11302 52.1668 9.94931 52.5051 10.8187 52.5001H49.1663C50.0377 52.5071 50.8767 52.17 51.5009 51.5619C52.1252 50.9538 52.4842 50.1239 52.5 49.2526V10.7438C52.4842 9.87316 52.1249 9.04404 51.5005 8.43714C50.876 7.83024 50.037 7.49476 49.1663 7.50381L49.1625 7.50006Z" fill="#0A66C2"/>
</svg>

