<svg width="60" height="60" viewBox="0 0 60 60" fill="none" xmlns="http://www.w3.org/2000/svg">
    <path d="M31.1786 58.6071C46.327 58.6071 58.6071 46.327 58.6071 31.1786C58.6071 16.0302 46.327 3.75 31.1786 3.75C16.0302 3.75 3.75 16.0302 3.75 31.1786C3.75 46.327 16.0302 58.6071 31.1786 58.6071Z" fill="url(#paint0_linear_99_280)"/>
    <path d="M44.8666 19.8325C45.1107 18.2544 43.6103 17.0088 42.2072 17.6249L14.2606 29.8949C13.2544 30.3367 13.328 31.8609 14.3716 32.1932L20.1348 34.0285C21.2349 34.3788 22.4259 34.1976 23.3865 33.534L36.3802 24.5571C36.772 24.2863 37.1991 24.8435 36.8643 25.1885L27.5111 34.8316C26.6039 35.7671 26.7839 37.3523 27.8754 38.0366L38.3472 44.6034C39.5217 45.3399 41.0326 44.6001 41.2523 43.1807L44.8666 19.8325Z" fill="white"/>
    <defs>
        <linearGradient id="paint0_linear_99_280" x1="31.1786" y1="3.75" x2="31.1786" y2="58.6071" gradientUnits="userSpaceOnUse">
            <stop stop-color="#37BBFE"/>
            <stop offset="1" stop-color="#007DBB"/>
        </linearGradient>
    </defs>
</svg>