<svg width="60" height="60" viewBox="0 0 60 60" fill="none" xmlns="http://www.w3.org/2000/svg">
    <path d="M21.2673 1.48511H38.7623C54.7425 1.48511 58.5148 5.28709 58.5148 21.2673V38.7623C58.5148 54.7425 54.7128 58.5148 38.7326 58.5148H21.2376C5.25738 58.5148 1.48511 54.7128 1.48511 38.7326V21.2376C1.48511 5.28709 5.28709 1.48511 21.2673 1.48511Z" fill="#5181B8"/>
    <mask id="mask0_100_287" style="mask-type:luminance" maskUnits="userSpaceOnUse" x="1" y="1" width="58" height="58">
        <path d="M21.2673 1.48511H38.7623C54.7425 1.48511 58.5148 5.28709 58.5148 21.2673V38.7623C58.5148 54.7425 54.7128 58.5148 38.7326 58.5148H21.2376C5.25738 58.5148 1.48511 54.7128 1.48511 38.7326V21.2376C1.48511 5.28709 5.28709 1.48511 21.2673 1.48511Z" fill="white"/>
    </mask>
    <g mask="url(#mask0_100_287)">
        <path d="M0 0H60V60H0V0Z" fill="#5181B8"/>
    </g>
    <path fill-rule="evenodd" clip-rule="evenodd" d="M48.1783 21.1189C48.4456 20.2278 48.1783 19.604 46.9307 19.604H42.7723C41.703 19.604 41.2278 20.1684 40.9604 20.7921C40.9604 20.7921 38.8515 25.9604 35.8515 29.2872C34.8713 30.2674 34.4555 30.5644 33.9208 30.5644C33.6535 30.5644 33.2674 30.2674 33.2674 29.3763V21.1189C33.2674 20.0495 32.9704 19.604 32.0793 19.604H25.5446C24.8911 19.604 24.4753 20.109 24.4753 20.5545C24.4753 21.5644 25.9605 21.802 26.1387 24.5941V30.7129C26.1387 32.0496 25.901 32.2872 25.3664 32.2872C23.9704 32.2872 20.5248 27.1189 18.505 21.1783C18.0892 20.0793 17.703 19.604 16.6337 19.604H12.4753C11.2872 19.604 11.0496 20.1684 11.0496 20.7921C11.0496 21.8911 12.4456 27.3565 17.6139 34.5743C21.0595 39.505 25.901 42.1783 30.2971 42.1783C32.9406 42.1783 33.2674 41.5842 33.2674 40.5743V36.8317C33.2674 35.6436 33.505 35.406 34.3664 35.406C34.9902 35.406 36.0298 35.703 38.4951 38.0793C41.3169 40.901 41.7921 42.1783 43.3664 42.1783H47.5248C48.7129 42.1783 49.307 41.5842 48.9506 40.4258C48.5644 39.2674 47.2278 37.5743 45.4456 35.5545C44.4654 34.3961 43.01 33.1783 42.5941 32.5545C41.9703 31.7525 42.1486 31.3961 42.5941 30.7129C42.5941 30.6832 47.6733 23.5545 48.1783 21.1189Z" fill="white"/>
</svg>