<svg width="121" height="120" viewBox="0 0 121 120" fill="none" xmlns="http://www.w3.org/2000/svg">
    <g clip-path="url(#clip0_174_113)">
        <mask id="mask0_174_113" style="mask-type:luminance" maskUnits="userSpaceOnUse" x="0" y="0" width="121" height="120">
            <path d="M120.5 0H0.5V120H120.5V0Z" fill="white"/>
        </mask>
        <g mask="url(#mask0_174_113)">
            <path d="M60.4995 120C93.6365 120 120.5 93.1365 120.5 59.9995C120.5 26.8628 93.6365 0 60.4995 0C27.3628 0 0.5 26.8628 0.5 59.9995C0.5 93.1365 27.3628 120 60.4995 120Z" fill="#05CC31"/>
            <path d="M59.4299 36.5309C60.1944 36.7969 60.9924 36.9299 61.7794 36.9299C62.8654 36.9299 63.9404 36.675 64.8939 36.1762C67.4094 34.8573 68.7394 32.286 68.3629 29.493C67.9639 26.5449 65.8579 24.2285 62.9874 23.6079C60.3829 23.0315 57.7559 23.8961 56.1489 25.8577C54.5754 27.7751 54.2539 30.3686 55.3179 32.7958C56.0824 34.5137 57.5679 35.888 59.4299 36.5309ZM57.4124 26.8774C58.3769 25.7026 59.8399 25.0487 61.4024 25.0487C61.8124 25.0487 62.2339 25.093 62.6439 25.1817C64.8384 25.6582 66.4559 27.4426 66.7554 29.7036C67.0439 31.8427 66.0689 33.7268 64.1399 34.7354C62.8874 35.3893 61.3694 35.489 59.9619 34.9903C58.5319 34.4916 57.3904 33.4387 56.8029 32.1198C56.0049 30.291 56.2269 28.3183 57.4124 26.8774Z" fill="white" stroke="white" stroke-width="1.351"/>
            <path d="M56.4575 46.348C55.9695 48.4322 56.6125 50.1175 56.801 50.04C57.023 49.9954 56.768 48.399 57.2115 46.5143C57.6215 44.6296 58.553 43.3103 58.3755 43.1661C58.2425 43.022 56.923 44.2637 56.4575 46.348Z" fill="white" stroke="white" stroke-width="1.351"/>
            <path d="M62.7523 28.372C63.2733 28.6603 63.6838 28.9817 63.8723 28.8598C64.0493 28.76 63.8388 28.0948 63.1403 27.6957C62.4418 27.2966 61.7658 27.4407 61.7658 27.6513C61.7543 27.8731 62.2423 28.0726 62.7523 28.372Z" fill="white" stroke="white" stroke-width="1.351"/>
            <path d="M92.9585 84.6095L75.8154 84.8425C75.9155 83.457 75.9375 82.072 75.9599 80.72C75.9819 79.3015 76.0154 77.8495 76.1149 76.421C76.4144 72.365 75.5494 69.118 73.533 66.7685C72.9009 66.0375 72.2699 65.3835 71.6489 64.752C70.0424 63.101 68.6574 61.6825 67.8149 59.3335C66.9064 56.7845 67.0169 54.3135 67.1389 51.6875C67.1389 51.643 67.1389 51.6095 67.1389 51.5655C68.6239 52.7955 70.6739 53.7705 71.0285 53.8925C74.1535 55.0225 78.7744 55.0115 82.4644 54.89C84.0714 54.8345 86.0989 53.9035 86.6644 52.2855C86.8969 51.621 87.0519 50.313 85.4669 48.928C84.0824 47.7312 81.5119 47.6759 79.1954 47.7756L78.3864 47.8199C76.6354 47.9196 74.9734 48.0083 73.5554 47.2215C72.3029 46.5234 71.5824 45.5483 70.7404 44.4291C70.4744 44.0744 70.1979 43.7087 69.9095 43.3431C68.325 41.3817 66.0089 39.7417 63.7259 38.966C61.6429 38.2568 59.0499 38.7333 56.9334 39.9411C56.9224 39.9411 56.9109 39.9411 56.9109 39.9522L55.7254 40.5063C52.5339 41.9801 48.1569 44.008 46.0182 46.5345C43.4142 49.5929 42.5277 53.671 41.752 57.272C41.7076 57.494 41.6412 57.7375 41.5857 57.9815C41.2312 59.4 40.7879 61.173 41.6301 62.547C42.4501 63.8875 43.4474 64.1425 44.1123 64.1425C44.212 64.1425 44.3118 64.1315 44.4004 64.1315C46.0293 63.943 47.4367 62.2365 47.9353 60.7185C48.2899 59.6325 48.434 58.491 48.5669 57.383C48.7443 55.9425 48.9104 54.5795 49.52 53.438C50.0407 52.441 51.1819 51.765 52.2904 51.1C52.3679 51.0555 52.4454 51.0115 52.5229 50.956V51.0115C52.7669 53.128 53.1104 55.2665 53.4759 57.527C54.7614 65.5055 56.0909 73.75 52.4899 80.6315C52.0134 81.5405 51.0824 82.615 50.0962 83.7565C49.6972 84.2105 49.2872 84.687 48.8883 85.175L28.0334 85.4405C27.5902 85.4405 27.2245 85.8175 27.2356 86.261C27.2356 86.7035 27.6012 87.0585 28.0445 87.0585H28.0556L47.6361 86.8035C46.118 89.02 45.2536 91.4245 46.9491 93.763C47.758 94.893 48.7664 95.4585 49.9521 95.4585H50.0075C53.2764 95.403 56.7559 90.837 59.0939 87.402C59.2269 87.2025 59.4044 86.9475 59.5819 86.66L67.0169 86.5715C66.9619 87.4575 66.8954 88.333 66.8509 89.219C66.7734 90.582 66.8619 93.0755 68.347 94.394C68.8904 94.871 69.8539 95.381 71.3614 95.1145C74.6964 94.516 75.3944 88.8095 75.6494 86.66C75.6604 86.5935 75.6604 86.538 75.6714 86.4715L92.9809 86.2385C93.4234 86.2385 93.7895 85.8615 93.7785 85.418C93.7674 84.9645 93.4125 84.6095 92.9585 84.6095ZM51.4479 49.6926C50.207 50.424 48.8107 51.266 48.0683 52.6625C47.3258 54.0695 47.1374 55.6435 46.9491 57.1725C46.8161 58.2475 46.6942 59.267 46.3839 60.1975C45.9961 61.361 44.9988 62.414 44.201 62.5135C44.0458 62.536 43.5472 62.591 43.0042 61.6935C42.5166 60.896 42.8712 59.4995 43.1482 58.369C43.2147 58.1035 43.2812 57.8485 43.3366 57.6045C44.1123 54.0255 44.9212 50.3245 47.2593 47.5761C48.6224 45.9693 51.1489 44.5288 53.5979 43.3098C53.5314 43.4539 53.4539 43.5979 53.3874 43.742C52.7444 45.3266 52.4234 47.1661 52.4234 49.0832C52.1019 49.2937 51.7804 49.4931 51.4479 49.6926ZM63.0944 71.423C63.0614 70.7245 63.0279 70.049 63.0059 69.395C63.2609 69.528 63.5379 69.683 63.8699 69.8495C64.8009 70.3365 66.3749 71.157 66.6289 71.4455C67.8479 72.9295 67.6934 75.08 67.5384 77.163C67.5049 77.673 67.4604 78.1715 67.4494 78.648C67.3829 80.742 67.2389 82.87 67.1059 84.953L60.5459 85.031C61.4544 83.4015 62.4519 81.2965 62.8504 79.268C63.3494 76.808 63.2274 74.071 63.0944 71.423ZM74.4969 76.299C74.3859 77.7615 74.3639 79.246 74.3305 80.6865C74.2975 82.593 74.264 84.554 74.032 86.4605C73.4884 90.8815 72.4915 93.253 71.062 93.508C70.3525 93.641 69.8099 93.53 69.4104 93.175C68.7129 92.555 68.3469 91.103 68.4579 89.308C68.5244 88.133 68.6019 86.9475 68.6794 85.773C68.8349 83.457 68.9899 81.0635 69.0669 78.6925C69.0779 78.238 69.1224 77.7615 69.1554 77.274C69.3219 74.9915 69.5104 72.398 67.8814 70.403C67.4829 69.916 66.3859 69.3285 64.6124 68.398C63.9699 68.065 63.0944 67.6115 62.8174 67.4115C62.6734 67.212 62.4294 67.068 62.1634 67.068C61.7204 67.068 61.3549 67.423 61.3549 67.8765C61.3434 69.029 61.3989 70.2265 61.4654 71.4785C61.5874 74.0275 61.7094 76.664 61.2659 78.914C60.8449 81.008 59.5264 83.823 57.7424 86.4605C54.4509 91.303 51.8359 93.774 49.9743 93.796C49.9632 93.796 49.9521 93.796 49.941 93.796C49.2983 93.796 48.7443 93.4635 48.2456 92.7765C46.6056 90.5155 48.4783 88.0335 51.2929 84.7645C52.3454 83.557 53.3319 82.4045 53.8969 81.3295C57.7534 73.972 56.3794 65.45 55.0494 57.217C54.6839 54.9785 54.3514 52.862 54.1074 50.7785C54.0634 50.3575 54.0299 49.9364 54.0189 49.5042C53.9634 47.6315 54.2629 45.8363 54.8719 44.3182C55.3484 43.1436 56.3459 42.1242 57.5649 41.3928L57.5869 41.3817C57.5984 41.3817 57.5984 41.3706 57.6094 41.3595C59.3379 40.329 61.4989 39.8858 63.1829 40.462C65.1889 41.149 67.228 42.5895 68.6355 44.3293C68.9235 44.6839 69.1779 45.0274 69.4329 45.3709C70.3414 46.5899 71.2059 47.7423 72.7464 48.6066C74.5744 49.6261 76.6354 49.5153 78.4639 49.4156L79.2504 49.3712C80.3594 49.327 83.3174 49.194 84.3924 50.125C85.0464 50.69 85.2905 51.222 85.124 51.7095C84.847 52.485 83.5949 53.183 82.3979 53.2275C79.1399 53.3385 74.4749 53.3825 71.5824 52.33C70.2534 51.8535 67.3274 49.9253 67.2169 49.2162C67.2169 48.7729 66.8619 48.3961 66.4189 48.3961H66.4079C65.9644 48.3961 65.5989 48.7507 65.5989 49.194C65.5879 50.003 65.5544 50.7895 65.5214 51.5655C65.3884 54.358 65.2664 56.984 66.2969 59.832C67.2609 62.5135 68.8349 64.1315 70.4965 65.838C71.095 66.448 71.7044 67.079 72.3139 67.777C74.0319 69.8385 74.7739 72.6865 74.4969 76.299Z" fill="white" stroke="white" stroke-width="1.351"/>
        </g>
    </g>
    <defs>
        <clipPath id="clip0_174_113">
            <rect width="120" height="120" fill="white" transform="translate(0.5)"/>
        </clipPath>
    </defs>
</svg>
